<?xml version="1.0" encoding="UTF-8" standalone="no"?>
<!DOCTYPE svg PUBLIC "-//W3C//DTD SVG 1.1//EN"
 "http://www.w3.org/Graphics/SVG/1.1/DTD/svg11.dtd">
<!-- Generated by graphviz version 12.2.1 (20241206.2353)
 -->
<!-- Pages: 1 -->
<svg width="328pt" height="301pt"
 viewBox="0.00 0.00 328.34 300.50" xmlns="http://www.w3.org/2000/svg" xmlns:xlink="http://www.w3.org/1999/xlink">
<g id="graph0" class="graph" transform="scale(1 1) rotate(0) translate(4 296.5)">
<polygon fill="white" stroke="none" points="-4,4 -4,-296.5 324.34,-296.5 324.34,4 -4,4"/>
<g id="clust1" class="cluster">
<title>cluster_obs_plate</title>
<polygon fill="none" stroke="black" points="207.88,-8 207.88,-84.5 277.88,-84.5 277.88,-8 207.88,-8"/>
<text text-anchor="middle" x="244" y="-15.2" font-family="Times,serif" font-size="14.00">obs_plate</text>
</g>
<!-- alpha -->
<g id="node1" class="node">
<title>alpha</title>
<ellipse fill="white" stroke="black" cx="30.88" cy="-202.5" rx="30.88" ry="18"/>
<text text-anchor="middle" x="30.88" y="-197.45" font-family="Times,serif" font-size="14.00">alpha</text>
</g>
<!-- integrated_mean -->
<g id="node7" class="node">
<title>integrated_mean</title>
<ellipse fill="white" stroke="black" stroke-dasharray="5,2" cx="118.88" cy="-130.5" rx="72.85" ry="18"/>
<text text-anchor="middle" x="118.88" y="-125.45" font-family="Times,serif" font-size="14.00">integrated_mean</text>
</g>
<!-- alpha&#45;&gt;integrated_mean -->
<g id="edge3" class="edge">
<title>alpha&#45;&gt;integrated_mean</title>
<path fill="none" stroke="black" d="M48.69,-187.33C60.28,-178.12 75.68,-165.87 89.1,-155.19"/>
<polygon fill="black" stroke="black" points="91.17,-158.01 96.82,-149.05 86.81,-152.53 91.17,-158.01"/>
</g>
<!-- p -->
<g id="node2" class="node">
<title>p</title>
<ellipse fill="white" stroke="black" cx="109.88" cy="-274.5" rx="27" ry="18"/>
<text text-anchor="middle" x="109.88" y="-269.45" font-family="Times,serif" font-size="14.00">p</text>
</g>
<!-- w_m -->
<g id="node5" class="node">
<title>w_m</title>
<ellipse fill="white" stroke="black" cx="147.88" cy="-202.5" rx="29.86" ry="18"/>
<text text-anchor="middle" x="147.88" y="-197.45" font-family="Times,serif" font-size="14.00">w_m</text>
</g>
<!-- p&#45;&gt;w_m -->
<g id="edge1" class="edge">
<title>p&#45;&gt;w_m</title>
<path fill="none" stroke="black" d="M118.69,-257.26C123.09,-249.17 128.52,-239.16 133.5,-229.99"/>
<polygon fill="black" stroke="black" points="136.43,-231.92 138.13,-221.46 130.28,-228.58 136.43,-231.92"/>
</g>
<!-- p&#45;&gt;integrated_mean -->
<g id="edge4" class="edge">
<title>p&#45;&gt;integrated_mean</title>
<path fill="none" stroke="black" d="M108.61,-256.06C107.56,-238.09 106.56,-209.27 108.88,-184.5 109.64,-176.36 111.05,-167.6 112.57,-159.6"/>
<polygon fill="black" stroke="black" points="115.95,-160.55 114.52,-150.05 109.09,-159.15 115.95,-160.55"/>
</g>
<!-- tau_g -->
<g id="node3" class="node">
<title>tau_g</title>
<ellipse fill="white" stroke="black" cx="195.88" cy="-274.5" rx="31.39" ry="18"/>
<text text-anchor="middle" x="195.88" y="-269.45" font-family="Times,serif" font-size="14.00">tau_g</text>
</g>
<!-- tau_g&#45;&gt;w_m -->
<g id="edge2" class="edge">
<title>tau_g&#45;&gt;w_m</title>
<path fill="none" stroke="black" d="M184.75,-257.26C178.99,-248.87 171.83,-238.43 165.36,-229"/>
<polygon fill="black" stroke="black" points="168.35,-227.16 159.81,-220.9 162.58,-231.12 168.35,-227.16"/>
</g>
<!-- tau_g&#45;&gt;integrated_mean -->
<g id="edge5" class="edge">
<title>tau_g&#45;&gt;integrated_mean</title>
<path fill="none" stroke="black" d="M197.97,-256.26C199.43,-237.42 199.27,-206.93 186.88,-184.5 180.09,-172.22 169.16,-161.82 158.02,-153.58"/>
<polygon fill="black" stroke="black" points="160.18,-150.82 149.95,-148.03 156.21,-156.58 160.18,-150.82"/>
</g>
<!-- sigma -->
<g id="node4" class="node">
<title>sigma</title>
<ellipse fill="white" stroke="black" cx="242.88" cy="-130.5" rx="33.44" ry="18"/>
<text text-anchor="middle" x="242.88" y="-125.45" font-family="Times,serif" font-size="14.00">sigma</text>
</g>
<!-- obs -->
<g id="node8" class="node">
<title>obs</title>
<ellipse fill="grey" stroke="black" cx="242.88" cy="-58.5" rx="27" ry="18"/>
<text text-anchor="middle" x="242.88" y="-53.45" font-family="Times,serif" font-size="14.00">obs</text>
</g>
<!-- sigma&#45;&gt;obs -->
<g id="edge8" class="edge">
<title>sigma&#45;&gt;obs</title>
<path fill="none" stroke="black" d="M242.88,-112.2C242.88,-104.91 242.88,-96.23 242.88,-88.04"/>
<polygon fill="black" stroke="black" points="246.38,-88.12 242.88,-78.12 239.38,-88.12 246.38,-88.12"/>
</g>
<!-- w_m&#45;&gt;integrated_mean -->
<g id="edge6" class="edge">
<title>w_m&#45;&gt;integrated_mean</title>
<path fill="none" stroke="black" d="M140.86,-184.55C137.7,-176.93 133.89,-167.73 130.33,-159.15"/>
<polygon fill="black" stroke="black" points="133.68,-158.07 126.62,-150.17 127.21,-160.75 133.68,-158.07"/>
</g>
<!-- x_true -->
<g id="node6" class="node">
<title>x_true</title>
<ellipse fill="white" stroke="black" cx="285.88" cy="-202.5" rx="34.46" ry="18"/>
<text text-anchor="middle" x="285.88" y="-197.45" font-family="Times,serif" font-size="14.00">x_true</text>
</g>
<!-- x_true&#45;&gt;integrated_mean -->
<g id="edge7" class="edge">
<title>x_true&#45;&gt;integrated_mean</title>
<path fill="none" stroke="black" d="M259.79,-190.56C234.51,-179.97 195.64,-163.67 165.12,-150.88"/>
<polygon fill="black" stroke="black" points="166.68,-147.74 156.1,-147.1 163.97,-154.2 166.68,-147.74"/>
</g>
<!-- x_true&#45;&gt;obs -->
<g id="edge9" class="edge">
<title>x_true&#45;&gt;obs</title>
<path fill="none" stroke="black" d="M288.91,-184.2C291.4,-165.83 293.29,-136.24 284.88,-112.5 280.92,-101.33 273.55,-90.73 266.08,-81.99"/>
<polygon fill="black" stroke="black" points="268.76,-79.72 259.42,-74.71 263.59,-84.45 268.76,-79.72"/>
</g>
<!-- integrated_mean&#45;&gt;obs -->
<g id="edge10" class="edge">
<title>integrated_mean&#45;&gt;obs</title>
<path fill="none" stroke="black" d="M147.02,-113.62C166.61,-102.56 192.71,-87.82 212.73,-76.52"/>
<polygon fill="black" stroke="black" points="214.27,-79.67 221.26,-71.7 210.83,-73.57 214.27,-79.67"/>
</g>
</g>
</svg>
